<svg width="117px" height="25px" viewBox="0 0 117 25" version="1.1" xmlns="http://www.w3.org/2000/svg" xmlns:xlink="http://www.w3.org/1999/xlink">
    <!-- Generator: Sketch 50.2 (55047) - http://www.bohemiancoding.com/sketch -->
    <title>Group 64</title>
    <desc>Created with Sketch.</desc>
    <defs/>
    <g id="Page-1" stroke="none" stroke-width="1" fill="none" fill-rule="evenodd">
        <g id="Group-64" fill="#F7BB0A">
            <path d="M40.3892218,8.61252238 C41.4090332,10.255883 42,12.1955291 42,14.2743665 C42,20.1979807 37.2161895,25 31.3150371,25 C27.1141596,25 23.4825576,22.5647167 21.7374541,19.0250964 L23.9453048,15.3235432 C24.4536841,18.9534846 27.5585898,21.7471492 31.3150371,21.7471492 C35.426418,21.7471492 38.7593231,18.4013968 38.7593231,14.2743665 C38.7593231,13.4098644 38.611501,12.5806842 38.3425292,11.8082773 L40.3892218,8.61252238 Z M31.3151014,6.80166449 C28.7160042,6.80166449 26.4292615,8.13954614 25.0977384,10.1658038 L19.8206521,19.8511314 C17.9452402,22.9381784 14.5612402,24.9999194 10.6953724,24.9999194 C4.79405935,24.9999194 0.010409492,20.1980613 0.010409492,14.2742859 L0.010409492,2.60786116 C0.010409492,2.60786116 -0.284109862,0 2.26003604,0 C2.90338328,0.000161287721 3.22152203,0.013870744 3.22152203,0.013870744 L3.22152203,6.61199013 C5.14851091,4.71798842 7.78536694,3.54865244 10.6953724,3.54865244 C14.6844788,3.54865244 18.1608676,5.74426219 19.9956284,8.9964678 L17.9365637,12.5431848 C17.1584092,9.2513024 14.2128943,6.80166449 10.6953724,6.80166449 C6.58383081,6.80166449 3.25092576,10.1472557 3.25092576,14.2742859 C3.25092576,18.4014774 6.58383081,21.7470686 10.6953724,21.7470686 C13.6590437,21.7470686 16.2178111,20.0082257 17.4156517,17.4916534 L22.1917498,8.69421461 C24.067483,5.60894179 27.4506797,3.54865244 31.3151014,3.54865244 C33.3650075,3.54865244 35.2793029,4.12928824 36.9058274,5.13378816 L35.1931805,7.89503395 C34.0636273,7.20165804 32.7361211,6.80166449 31.3151014,6.80166449 Z M10.1282821,19.6824729 C9.86316644,19.6824729 9.64625365,19.4647344 9.64625365,19.1986097 L9.64625365,15.7107627 L6.17163226,15.7107627 C5.90651664,15.7107627 5.68960385,15.4930243 5.68960385,15.2268996 L5.68960385,13.5333785 C5.68960385,13.267415 5.90651664,13.0495153 6.17163226,13.0495153 L9.64625365,13.0495153 L9.64625365,9.56166836 C9.64625365,9.29570491 9.86316644,9.0778052 10.1282821,9.0778052 L11.8153815,9.0778052 C12.0803364,9.0778052 12.2974099,9.29570491 12.2974099,9.56166836 L12.2974099,13.0495153 L15.7720313,13.0495153 C16.0369862,13.0495153 16.2540597,13.267415 16.2540597,13.5333785 L16.2540597,15.2268996 C16.2540597,15.4930243 16.0369862,15.7107627 15.7720313,15.7107627 L12.2974099,15.7107627 L12.2974099,19.1986097 C12.2974099,19.4647344 12.0803364,19.6824729 11.8153815,19.6824729 L10.1282821,19.6824729 Z M26.5575774,13.2397865 C27.1850177,12.6099579 28.202419,12.6099579 28.83002,13.2397865 C29.4574603,13.869615 29.4574603,14.8907276 28.83002,15.5207174 C28.202419,16.150546 27.1850177,16.150546 26.5575774,15.5207174 C25.9301371,14.8907276 25.9301371,13.869615 26.5575774,13.2397865 Z M32.4451687,9.61081273 C33.072609,10.2406413 33.072609,11.2617538 32.4451687,11.8917437 C31.8177284,12.5215722 30.8003272,12.5215722 30.1727262,11.8917437 C29.5452859,11.2617538 29.5452859,10.2406413 30.1727262,9.61081273 C30.8003272,8.98098418 31.8177284,8.98098418 32.4451687,9.61081273 Z M30.1727905,16.8687602 C30.8002308,16.2389316 31.817632,16.2389316 32.445233,16.8687602 C33.0726733,17.4985887 33.0726733,18.5197013 32.445233,19.1496911 C31.817632,19.7795197 30.8002308,19.7795197 30.1727905,19.1496911 C29.5453501,18.5197013 29.5453501,17.4985887 30.1727905,16.8687602 Z M33.7880035,13.2397865 C34.4154438,12.6099579 35.4328451,12.6099579 36.060446,13.2397865 C36.6878863,13.869615 36.6878863,14.8907276 36.060446,15.5207174 C35.4328451,16.150546 34.4154438,16.150546 33.7880035,15.5207174 C33.1605632,14.8907276 33.1605632,13.869615 33.7880035,13.2397865 Z" id="Combined-Shape"/>
            <text id="BC.GAME" font-family="Montserrat-Regular, Montserrat" font-size="16" font-weight="normal" letter-spacing="-0.824000001">
                <tspan x="45" y="20">BC.GAME</tspan>
            </text>
        </g>
    </g>
</svg>